<mxfile host="app.diagrams.net" modified="2022-03-19T08:15:26.455Z" agent="5.0 (Windows NT 10.0; WOW64) AppleWebKit/537.36 (KHTML, like Gecko) Chrome/99.0.4844.51 Safari/537.36" etag="a65sxjKPbENFJ8IWumKs" version="17.0.0" type="github">
  <diagram id="hWz_SNzUBFFIVMkBRD-k" name="Page-1">
    <mxGraphModel dx="981" dy="526" grid="1" gridSize="10" guides="1" tooltips="1" connect="1" arrows="1" fold="1" page="1" pageScale="1" pageWidth="827" pageHeight="1169" math="1" shadow="0">
      <root>
        <mxCell id="0" />
        <mxCell id="1" parent="0" />
        <mxCell id="NXF07AQHCv1ULebbsSob-1" value="联合动作&lt;br&gt;" style="rounded=1;whiteSpace=wrap;html=1;" vertex="1" parent="1">
          <mxGeometry x="152.5" y="390" width="95" height="40" as="geometry" />
        </mxCell>
        <mxCell id="NXF07AQHCv1ULebbsSob-5" value="" style="edgeStyle=orthogonalEdgeStyle;rounded=0;orthogonalLoop=1;jettySize=auto;html=1;dashed=1;" edge="1" parent="1" source="NXF07AQHCv1ULebbsSob-2" target="NXF07AQHCv1ULebbsSob-4">
          <mxGeometry relative="1" as="geometry" />
        </mxCell>
        <mxCell id="NXF07AQHCv1ULebbsSob-19" value="" style="edgeStyle=orthogonalEdgeStyle;rounded=0;orthogonalLoop=1;jettySize=auto;html=1;dashed=1;entryX=0;entryY=0.5;entryDx=0;entryDy=0;" edge="1" parent="1" source="NXF07AQHCv1ULebbsSob-2" target="NXF07AQHCv1ULebbsSob-10">
          <mxGeometry relative="1" as="geometry">
            <mxPoint x="300" y="199.9999999999999" as="targetPoint" />
          </mxGeometry>
        </mxCell>
        <mxCell id="NXF07AQHCv1ULebbsSob-2" value="状态" style="ellipse;whiteSpace=wrap;html=1;aspect=fixed;" vertex="1" parent="1">
          <mxGeometry x="170" y="170" width="60" height="60" as="geometry" />
        </mxCell>
        <mxCell id="NXF07AQHCv1ULebbsSob-6" value="" style="edgeStyle=orthogonalEdgeStyle;rounded=0;orthogonalLoop=1;jettySize=auto;html=1;" edge="1" parent="1" source="NXF07AQHCv1ULebbsSob-4" target="NXF07AQHCv1ULebbsSob-1">
          <mxGeometry relative="1" as="geometry" />
        </mxCell>
        <mxCell id="NXF07AQHCv1ULebbsSob-4" value="观察值" style="ellipse;whiteSpace=wrap;html=1;aspect=fixed;" vertex="1" parent="1">
          <mxGeometry x="170" y="280" width="60" height="60" as="geometry" />
        </mxCell>
        <mxCell id="NXF07AQHCv1ULebbsSob-7" value="&lt;span&gt;$$a_{0}$$&lt;/span&gt;" style="text;html=1;strokeColor=none;fillColor=none;align=center;verticalAlign=middle;whiteSpace=wrap;rounded=0;" vertex="1" parent="1">
          <mxGeometry x="170" y="407" width="60" height="30" as="geometry" />
        </mxCell>
        <mxCell id="NXF07AQHCv1ULebbsSob-8" value="联合动作&lt;br&gt;" style="rounded=1;whiteSpace=wrap;html=1;" vertex="1" parent="1">
          <mxGeometry x="440" y="392" width="95" height="40" as="geometry" />
        </mxCell>
        <mxCell id="NXF07AQHCv1ULebbsSob-9" value="" style="edgeStyle=orthogonalEdgeStyle;rounded=0;orthogonalLoop=1;jettySize=auto;html=1;" edge="1" parent="1" source="NXF07AQHCv1ULebbsSob-10" target="NXF07AQHCv1ULebbsSob-12">
          <mxGeometry relative="1" as="geometry" />
        </mxCell>
        <mxCell id="NXF07AQHCv1ULebbsSob-22" value="" style="edgeStyle=orthogonalEdgeStyle;rounded=0;orthogonalLoop=1;jettySize=auto;html=1;dashed=1;endArrow=classic;endFill=1;" edge="1" parent="1" source="NXF07AQHCv1ULebbsSob-10">
          <mxGeometry relative="1" as="geometry">
            <mxPoint x="750" y="200" as="targetPoint" />
          </mxGeometry>
        </mxCell>
        <mxCell id="NXF07AQHCv1ULebbsSob-10" value="状态" style="ellipse;whiteSpace=wrap;html=1;aspect=fixed;" vertex="1" parent="1">
          <mxGeometry x="457.5" y="170" width="60" height="60" as="geometry" />
        </mxCell>
        <mxCell id="NXF07AQHCv1ULebbsSob-11" value="" style="edgeStyle=orthogonalEdgeStyle;rounded=0;orthogonalLoop=1;jettySize=auto;html=1;" edge="1" parent="1" source="NXF07AQHCv1ULebbsSob-12" target="NXF07AQHCv1ULebbsSob-8">
          <mxGeometry relative="1" as="geometry" />
        </mxCell>
        <mxCell id="NXF07AQHCv1ULebbsSob-12" value="观察值" style="ellipse;whiteSpace=wrap;html=1;aspect=fixed;" vertex="1" parent="1">
          <mxGeometry x="457.5" y="280" width="60" height="60" as="geometry" />
        </mxCell>
        <mxCell id="NXF07AQHCv1ULebbsSob-13" value="&lt;span&gt;$$a_{1}$$&lt;/span&gt;" style="text;html=1;strokeColor=none;fillColor=none;align=center;verticalAlign=middle;whiteSpace=wrap;rounded=0;" vertex="1" parent="1">
          <mxGeometry x="457.5" y="407" width="60" height="30" as="geometry" />
        </mxCell>
        <mxCell id="NXF07AQHCv1ULebbsSob-14" value="" style="endArrow=classic;html=1;rounded=0;dashed=1;" edge="1" parent="1">
          <mxGeometry width="50" height="50" relative="1" as="geometry">
            <mxPoint x="230" y="210" as="sourcePoint" />
            <mxPoint x="310" y="290" as="targetPoint" />
          </mxGeometry>
        </mxCell>
        <mxCell id="NXF07AQHCv1ULebbsSob-34" style="edgeStyle=orthogonalEdgeStyle;rounded=0;orthogonalLoop=1;jettySize=auto;html=1;exitX=0;exitY=1;exitDx=0;exitDy=0;exitPerimeter=0;entryX=0.034;entryY=1.162;entryDx=0;entryDy=0;entryPerimeter=0;dashed=1;endArrow=classic;endFill=1;" edge="1" parent="1" source="NXF07AQHCv1ULebbsSob-15" target="NXF07AQHCv1ULebbsSob-16">
          <mxGeometry relative="1" as="geometry" />
        </mxCell>
        <mxCell id="NXF07AQHCv1ULebbsSob-15" value="" style="verticalLabelPosition=bottom;verticalAlign=top;html=1;shape=mxgraph.basic.diag_round_rect;dx=6;" vertex="1" parent="1">
          <mxGeometry x="281" y="290" width="54" height="40" as="geometry" />
        </mxCell>
        <mxCell id="NXF07AQHCv1ULebbsSob-16" value="回报" style="text;html=1;strokeColor=none;fillColor=none;align=center;verticalAlign=middle;whiteSpace=wrap;rounded=0;" vertex="1" parent="1">
          <mxGeometry x="279" y="293" width="60" height="30" as="geometry" />
        </mxCell>
        <mxCell id="NXF07AQHCv1ULebbsSob-17" value="" style="endArrow=classic;html=1;rounded=0;" edge="1" parent="1">
          <mxGeometry width="50" height="50" relative="1" as="geometry">
            <mxPoint x="247.5" y="400" as="sourcePoint" />
            <mxPoint x="316.5" y="330" as="targetPoint" />
          </mxGeometry>
        </mxCell>
        <mxCell id="NXF07AQHCv1ULebbsSob-20" value="" style="endArrow=classic;dashed=1;html=1;dashPattern=1 3;strokeWidth=2;rounded=0;endFill=1;entryX=0;entryY=1;entryDx=0;entryDy=0;" edge="1" parent="1" target="NXF07AQHCv1ULebbsSob-10">
          <mxGeometry width="50" height="50" relative="1" as="geometry">
            <mxPoint x="249" y="410" as="sourcePoint" />
            <mxPoint x="490" y="220" as="targetPoint" />
          </mxGeometry>
        </mxCell>
        <mxCell id="NXF07AQHCv1ULebbsSob-23" value="" style="endArrow=classic;html=1;rounded=0;dashed=1;" edge="1" parent="1">
          <mxGeometry width="50" height="50" relative="1" as="geometry">
            <mxPoint x="517.5" y="210" as="sourcePoint" />
            <mxPoint x="597.5" y="290" as="targetPoint" />
          </mxGeometry>
        </mxCell>
        <mxCell id="NXF07AQHCv1ULebbsSob-24" value="" style="endArrow=classic;html=1;rounded=0;" edge="1" parent="1">
          <mxGeometry width="50" height="50" relative="1" as="geometry">
            <mxPoint x="535" y="400.0000000000001" as="sourcePoint" />
            <mxPoint x="604" y="330.0000000000001" as="targetPoint" />
          </mxGeometry>
        </mxCell>
        <mxCell id="NXF07AQHCv1ULebbsSob-26" value="" style="endArrow=classic;dashed=1;html=1;dashPattern=1 3;strokeWidth=2;rounded=0;endFill=1;entryX=0;entryY=1;entryDx=0;entryDy=0;" edge="1" parent="1">
          <mxGeometry width="50" height="50" relative="1" as="geometry">
            <mxPoint x="535" y="418.79000000000013" as="sourcePoint" />
            <mxPoint x="752.2867965644036" y="230.00320343559613" as="targetPoint" />
          </mxGeometry>
        </mxCell>
        <mxCell id="NXF07AQHCv1ULebbsSob-27" value="&lt;span&gt;$$\dots$$&lt;/span&gt;" style="text;html=1;strokeColor=none;fillColor=none;align=center;verticalAlign=middle;whiteSpace=wrap;rounded=0;" vertex="1" parent="1">
          <mxGeometry x="740" y="200" width="60" height="30" as="geometry" />
        </mxCell>
        <mxCell id="NXF07AQHCv1ULebbsSob-29" value="&lt;span style=&quot;color: rgb(0, 0, 0); font-family: helvetica; font-size: 12px; font-style: normal; font-weight: 400; letter-spacing: normal; text-align: center; text-indent: 0px; text-transform: none; word-spacing: 0px; background-color: rgb(248, 249, 250); display: inline; float: none;&quot;&gt;$$s_{0}$$&lt;/span&gt;" style="text;whiteSpace=wrap;html=1;" vertex="1" parent="1">
          <mxGeometry x="191" y="190" width="30" height="30" as="geometry" />
        </mxCell>
        <mxCell id="NXF07AQHCv1ULebbsSob-30" value="&lt;span style=&quot;color: rgb(0 , 0 , 0) ; font-family: &amp;#34;helvetica&amp;#34; ; font-size: 12px ; font-style: normal ; font-weight: 400 ; letter-spacing: normal ; text-align: center ; text-indent: 0px ; text-transform: none ; word-spacing: 0px ; background-color: rgb(248 , 249 , 250) ; display: inline ; float: none&quot;&gt;$$s_{1}$$&lt;/span&gt;" style="text;whiteSpace=wrap;html=1;" vertex="1" parent="1">
          <mxGeometry x="480" y="188" width="60" height="30" as="geometry" />
        </mxCell>
        <mxCell id="NXF07AQHCv1ULebbsSob-31" value="&lt;span style=&quot;color: rgb(0, 0, 0); font-family: helvetica; font-size: 12px; font-style: normal; font-weight: 400; letter-spacing: normal; text-align: center; text-indent: 0px; text-transform: none; word-spacing: 0px; background-color: rgb(248, 249, 250); display: inline; float: none;&quot;&gt;$$o_{0}$$&lt;/span&gt;" style="text;whiteSpace=wrap;html=1;" vertex="1" parent="1">
          <mxGeometry x="192" y="300" width="30" height="30" as="geometry" />
        </mxCell>
        <mxCell id="NXF07AQHCv1ULebbsSob-32" value="&lt;span style=&quot;color: rgb(0 , 0 , 0) ; font-family: &amp;#34;helvetica&amp;#34; ; font-size: 12px ; font-style: normal ; font-weight: 400 ; letter-spacing: normal ; text-align: center ; text-indent: 0px ; text-transform: none ; word-spacing: 0px ; background-color: rgb(248 , 249 , 250) ; display: inline ; float: none&quot;&gt;$$o_{1}$$&lt;/span&gt;" style="text;whiteSpace=wrap;html=1;" vertex="1" parent="1">
          <mxGeometry x="480" y="300" width="30" height="30" as="geometry" />
        </mxCell>
        <mxCell id="NXF07AQHCv1ULebbsSob-33" value="&lt;span style=&quot;color: rgb(0, 0, 0); font-family: helvetica; font-size: 12px; font-style: normal; font-weight: 400; letter-spacing: normal; text-align: center; text-indent: 0px; text-transform: none; word-spacing: 0px; background-color: rgb(248, 249, 250); display: inline; float: none;&quot;&gt;$$r_{0}$$&lt;/span&gt;" style="text;whiteSpace=wrap;html=1;" vertex="1" parent="1">
          <mxGeometry x="300" y="295" width="80" height="30" as="geometry" />
        </mxCell>
        <mxCell id="NXF07AQHCv1ULebbsSob-36" value="" style="verticalLabelPosition=bottom;verticalAlign=top;html=1;shape=mxgraph.basic.diag_round_rect;dx=6;" vertex="1" parent="1">
          <mxGeometry x="573" y="290" width="54" height="40" as="geometry" />
        </mxCell>
        <mxCell id="NXF07AQHCv1ULebbsSob-37" value="&lt;span style=&quot;color: rgb(0 , 0 , 0) ; font-family: &amp;#34;helvetica&amp;#34; ; font-size: 12px ; font-style: normal ; font-weight: 400 ; letter-spacing: normal ; text-align: center ; text-indent: 0px ; text-transform: none ; word-spacing: 0px ; background-color: rgb(248 , 249 , 250) ; display: inline ; float: none&quot;&gt;$$r_{1}$$&lt;/span&gt;" style="text;whiteSpace=wrap;html=1;" vertex="1" parent="1">
          <mxGeometry x="591" y="294" width="80" height="30" as="geometry" />
        </mxCell>
        <mxCell id="NXF07AQHCv1ULebbsSob-39" value="&lt;div style=&quot;text-align: center&quot;&gt;&lt;span&gt;&lt;font face=&quot;helvetica&quot;&gt;回报&lt;/font&gt;&lt;/span&gt;&lt;/div&gt;" style="text;whiteSpace=wrap;html=1;" vertex="1" parent="1">
          <mxGeometry x="586" y="293" width="80" height="30" as="geometry" />
        </mxCell>
      </root>
    </mxGraphModel>
  </diagram>
</mxfile>
